<svg width="56" height="56" viewBox="0 0 56 56" fill="none" xmlns="http://www.w3.org/2000/svg">
<path d="M31.1742 27.0683C31.0141 27.0677 30.8556 27.1005 30.7088 27.1646C30.5621 27.2288 30.4304 27.3229 30.3221 27.4409C30.2139 27.5589 30.1315 27.6982 30.0802 27.8499C30.0289 28.0016 30.0098 28.1623 30.0242 28.3218H32.3932C32.4085 28.1563 32.3878 27.9895 32.3324 27.8328C32.2771 27.6761 32.1884 27.5333 32.0725 27.4142C31.9567 27.2951 31.8164 27.2024 31.6613 27.1427C31.5062 27.083 31.3401 27.0576 31.1742 27.0683ZM25.1137 28.3448H23.6992V30.5758H24.8492C25.9992 30.5758 26.5052 30.1963 26.5052 29.4258C26.5052 28.6553 25.9762 28.3448 25.1137 28.3448ZM26.1142 26.2978C26.1142 25.6883 25.7117 25.3203 25.0217 25.3203H23.6992V27.3213H24.6767C25.7002 27.3213 26.1142 26.9533 26.1142 26.2978Z" fill="#7D7D7D"/>
<path d="M28 16.5C25.7255 16.5 23.5021 17.1745 21.6109 18.4381C19.7198 19.7017 18.2458 21.4978 17.3754 23.5991C16.505 25.7005 16.2772 28.0128 16.721 30.2435C17.1647 32.4743 18.26 34.5234 19.8683 36.1317C21.4766 37.74 23.5257 38.8353 25.7565 39.279C27.9872 39.7228 30.2995 39.495 32.4009 38.6246C34.5022 37.7542 36.2983 36.2802 37.5619 34.3891C38.8255 32.4979 39.5 30.2745 39.5 28C39.5 26.4898 39.2025 24.9944 38.6246 23.5991C38.0467 22.2039 37.1996 20.9361 36.1317 19.8683C35.0639 18.8004 33.7961 17.9533 32.4009 17.3754C31.0056 16.7975 29.5102 16.5 28 16.5ZM25.355 31.68H22.25V24.205H25.355C26.7005 24.205 27.586 24.9065 27.586 26.045C27.6019 26.4275 27.4809 26.8031 27.2449 27.1045C27.0089 27.4059 26.6731 27.6133 26.298 27.6895C26.5357 27.695 26.7699 27.749 26.986 27.8481C27.2022 27.9472 27.3959 28.0894 27.5552 28.2659C27.7145 28.4425 27.8361 28.6497 27.9126 28.8748C27.9891 29.1 28.0188 29.3384 28 29.5755C28 30.9095 26.85 31.68 25.355 31.68ZM29.4375 24.78H32.8875V25.355H29.4375V24.78ZM33.75 29.2075H29.955V29.3685C29.9352 29.5432 29.9531 29.7202 30.0075 29.8874C30.0619 30.0547 30.1515 30.2083 30.2703 30.338C30.3891 30.4677 30.5343 30.5704 30.6961 30.6392C30.858 30.7081 31.0327 30.7414 31.2085 30.737C31.4553 30.7753 31.7077 30.7231 31.9191 30.59C32.1305 30.4568 32.2865 30.2517 32.3585 30.0125H33.75C33.6261 30.5645 33.3031 31.0515 32.8427 31.3804C32.3823 31.7092 31.8169 31.8568 31.2545 31.795C30.8951 31.8313 30.5321 31.7884 30.191 31.6693C29.8499 31.5502 29.5391 31.3578 29.2804 31.1057C29.0217 30.8536 28.8214 30.5478 28.6935 30.2099C28.5657 29.872 28.5135 29.5102 28.5405 29.15V28.644C28.5161 28.2949 28.5674 27.9447 28.6911 27.6174C28.8147 27.29 29.0076 26.9933 29.2567 26.7475C29.5057 26.5017 29.805 26.3127 30.134 26.1934C30.4629 26.0742 30.8138 26.0275 31.1625 26.0565C31.5101 26.0342 31.8584 26.0867 32.1839 26.2103C32.5095 26.3339 32.8048 26.5259 33.05 26.7732C33.2952 27.0206 33.4845 27.3176 33.6053 27.6442C33.726 27.9709 33.7754 28.3197 33.75 28.667V29.2075Z" fill="#7D7D7D"/>
<rect x="0.25" y="0.25" width="55.5" height="55.5" rx="27.75" stroke="#7D7D7D" stroke-width="0.5"/>
</svg>
