<svg width="25" height="25" viewBox="0 0 25 25" fill="none" xmlns="http://www.w3.org/2000/svg">
<g clip-path="url(#clip0_200_6531)">
<path d="M16.0866 10.8479C15.9264 10.8472 15.7679 10.88 15.6212 10.9442C15.4745 11.0083 15.3428 11.1024 15.2345 11.2204C15.1262 11.3384 15.0438 11.4777 14.9925 11.6294C14.9412 11.7811 14.9222 11.9419 14.9366 12.1014H17.3056C17.3209 11.9359 17.3001 11.7691 17.2448 11.6124C17.1894 11.4557 17.1007 11.3129 16.9849 11.1937C16.869 11.0746 16.7287 10.982 16.5737 10.9223C16.4186 10.8626 16.2524 10.8372 16.0866 10.8479ZM10.0261 12.1244H8.61157V14.3554H9.76157C10.9116 14.3554 11.4176 13.9759 11.4176 13.2054C11.4176 12.4349 10.8886 12.1244 10.0261 12.1244ZM11.0266 10.0774C11.0266 9.46785 10.6241 9.09985 9.93407 9.09985H8.61157V11.1009H9.58907C10.6126 11.1009 11.0266 10.7329 11.0266 10.0774Z" fill="#282828"/>
<path d="M12.9126 0.279541C10.6381 0.279541 8.41471 0.954004 6.52354 2.21764C4.63238 3.48128 3.1584 5.27733 2.28799 7.37868C1.41758 9.48003 1.18984 11.7923 1.63357 14.0231C2.0773 16.2539 3.17257 18.303 4.78087 19.9113C6.38918 21.5196 8.43828 22.6148 10.6691 23.0586C12.8998 23.5023 15.2121 23.2746 17.3135 22.4041C19.4148 21.5337 21.2109 20.0598 22.4745 18.1686C23.7381 16.2774 24.4126 14.054 24.4126 11.7795C24.4126 10.2693 24.1151 8.77392 23.5372 7.37868C22.9593 5.98343 22.1122 4.71569 21.0443 3.64781C19.9765 2.57994 18.7087 1.73286 17.3135 1.15493C15.9182 0.576997 14.4228 0.279541 12.9126 0.279541ZM10.2676 15.4595H7.1626V7.98454H10.2676C11.6131 7.98454 12.4986 8.68604 12.4986 9.82454C12.5145 10.207 12.3935 10.5826 12.1575 10.884C11.9215 11.1854 11.5857 11.3928 11.2106 11.469C11.4483 11.4745 11.6825 11.5285 11.8986 11.6276C12.1148 11.7267 12.3085 11.8689 12.4678 12.0455C12.6271 12.222 12.7487 12.4292 12.8252 12.6544C12.9017 12.8796 12.9314 13.118 12.9126 13.355C12.9126 14.689 11.7626 15.4595 10.2676 15.4595ZM14.3501 8.55954H17.8001V9.13454H14.3501V8.55954ZM18.6626 12.987H14.8676V13.148C14.8478 13.3228 14.8657 13.4997 14.9201 13.667C14.9745 13.8342 15.0641 13.9879 15.1829 14.1176C15.3017 14.2472 15.4469 14.35 15.6087 14.4188C15.7706 14.4876 15.9453 14.5209 16.1211 14.5165C16.3679 14.5549 16.6203 14.5027 16.8317 14.3695C17.0431 14.2364 17.1991 14.0312 17.2711 13.792H18.6626C18.5387 14.3441 18.2157 14.8311 17.7553 15.1599C17.2949 15.4887 16.7295 15.6364 16.1671 15.5745C15.8077 15.6108 15.4447 15.5679 15.1036 15.4488C14.7625 15.3298 14.4517 15.1374 14.193 14.8852C13.9343 14.6331 13.734 14.3273 13.6061 13.9895C13.4783 13.6516 13.4261 13.2898 13.4531 12.9295V12.4235C13.4287 12.0745 13.48 11.7243 13.6037 11.3969C13.7273 11.0696 13.9202 10.7728 14.1693 10.527C14.4183 10.2813 14.7176 10.0923 15.0466 9.97298C15.3755 9.85371 15.7264 9.80699 16.0751 9.83604C16.4227 9.81376 16.7709 9.8662 17.0965 9.98983C17.4221 10.1135 17.7174 10.3054 17.9626 10.5528C18.2078 10.8001 18.3971 11.0971 18.5179 11.4238C18.6386 11.7504 18.688 12.0992 18.6626 12.4465V12.987Z" fill="#282828"/>
</g>
<defs>
<clipPath id="clip0_200_6531">
<rect width="24" height="24" fill="white" transform="translate(0.412598 0.279541)"/>
</clipPath>
</defs>
</svg>
