<svg width="200" height="16" viewBox="0 0 200 16" fill="none" xmlns="http://www.w3.org/2000/svg">
<path d="M192 0.500008C196.142 0.500008 199.5 3.85788 199.5 8.00001C199.5 12.1422 196.142 15.5 192 15.5L115.32 15.5C112.823 15.5 110.341 14.0861 107.703 12.5667L107.632 12.5259C105.082 11.0571 102.379 9.50001 99.5868 9.50001C96.7947 9.50001 94.0914 11.0571 91.5414 12.5259L91.4704 12.5667C88.8323 14.0861 86.3509 15.5 83.8531 15.5L8 15.5C3.85787 15.5 0.5 12.1421 0.5 8.00001C0.5 3.85787 3.85787 0.5 8 0.5L83.8531 0.500003C86.3509 0.500003 88.8323 1.91392 91.4704 3.43329L91.5414 3.47415C94.0914 4.94295 96.7947 6.50001 99.5868 6.50001C102.379 6.50001 105.082 4.94295 107.632 3.47414L107.703 3.43329C110.341 1.91392 112.823 0.500005 115.32 0.500005L192 0.500008Z" stroke="#CECECE"/>
</svg>
