<svg width="265" height="16" viewBox="0 0 265 16" fill="none" xmlns="http://www.w3.org/2000/svg">
<path d="M257 0.500011C261.142 0.500011 264.5 3.85788 264.5 8.00002C264.5 12.1422 261.142 15.5 257 15.5L150.122 15.5C147.278 15.5 144.479 14.0701 141.54 12.5555L141.477 12.5232C138.613 11.0474 135.61 9.50001 132.5 9.50001C129.39 9.50001 126.387 11.0474 123.523 12.5232L123.46 12.5555C120.521 14.0701 117.722 15.5 114.878 15.5L8 15.5C3.85787 15.5 0.5 12.1421 0.5 8.00001C0.5 3.85787 3.85787 0.5 8 0.5L114.878 0.500005C117.722 0.500005 120.521 1.92995 123.46 3.44448L123.523 3.47681C126.387 4.95264 129.39 6.50001 132.5 6.50001C135.61 6.50001 138.613 4.95265 141.477 3.47682L141.54 3.44448C144.479 1.92995 147.278 0.500006 150.122 0.500006L257 0.500011Z" stroke="#CECECE"/>
</svg>
