<svg width="1440" height="121" viewBox="0 0 1440 121" fill="none" xmlns="http://www.w3.org/2000/svg">
<path d="M326.404 0H352.324V121H326.379C326.396 120.289 326.404 119.572 326.404 118.848C326.404 86.656 310.02 67.264 282.884 67.264C255.236 67.264 240.26 85.44 240.26 118.848C240.26 119.573 240.267 120.29 240.281 121H214.361C214.347 120.286 214.34 119.569 214.34 118.848C214.34 75.52 239.236 44.48 274.052 44.48C299.652 44.48 319.044 62.848 326.404 91.776V0Z" fill="#F1F1F1"/>
<path d="M197.742 121C197.757 120.287 197.764 119.569 197.764 118.848C197.764 74.24 170.116 44.48 128.772 44.48C87.428 44.48 59.78 74.24 59.78 118.848C59.78 119.569 59.7872 120.287 59.8016 121H85.7259C85.7086 120.289 85.7 119.572 85.7 118.848C85.7 87.36 102.148 67.904 128.836 67.904C155.46 67.904 171.844 87.296 171.844 118.848C171.844 119.572 171.835 120.289 171.818 121H197.742Z" fill="#F1F1F1"/>
<path d="M-11.91 121V119.488C-11.91 88.128 1.53 73.024 42.81 73.024H49.146V48.32H42.746C12.922 48.32 -5.382 65.216 -11.91 93.312V48.32H-37.83V121H-11.91Z" fill="#F1F1F1"/>
<path fill-rule="evenodd" clip-rule="evenodd" d="M-101.572 121C-76.1882 113.027 -59.536 92.0452 -59.536 65.28C-59.536 30.912 -86.864 6.39999 -125.136 6.39999H-210V121H-101.572ZM-183.12 99.52H-127.248C-102.288 99.52 -86.416 86.208 -86.416 65.28C-86.416 44.544 -102.032 31.36 -126.736 31.36H-183.12V99.52Z" fill="#F1F1F1"/>
<path d="M1650.3 121V110.528C1650.3 69.568 1631.1 44.48 1598.91 44.48C1572.61 44.48 1553.41 61.312 1546.56 89.088V48.32H1520.64V121H1546.56V113.088C1546.56 84.544 1562.11 67.904 1588.16 67.904C1612.35 67.904 1624.38 82.24 1624.38 110.528V121H1650.3Z" fill="#F1F1F1"/>
<path d="M1497.64 121V48.32H1471.72V89.792C1464.36 62.08 1444.84 44.48 1418.6 44.48C1384.56 44.48 1359.66 74.176 1359.66 115.648C1359.66 117.455 1359.71 119.239 1359.8 121H1385.73C1385.63 119.265 1385.58 117.481 1385.58 115.648C1385.58 84.288 1400.56 67.264 1427.5 67.264C1455.34 67.264 1471.72 85.44 1471.72 115.648C1471.72 117.476 1471.66 119.261 1471.55 121H1497.64Z" fill="#F1F1F1"/>
<path d="M1338.44 121V48.32H1312.52V121H1338.44Z" fill="#F1F1F1"/>
<path d="M1280.75 121C1268.93 111.655 1251.24 108.861 1237.01 106.624L1227.6 105.152L1227.29 105.103C1211.62 102.619 1193.94 99.8163 1193.94 86.528C1193.94 74.752 1207.89 66.88 1228.3 66.88C1250.9 66.88 1263.31 76.544 1263.31 91.008H1288.59C1288.59 62.528 1266.77 44.48 1228.3 44.48C1191.31 44.48 1168.66 61.12 1168.66 87.104C1168.66 106.613 1181.43 115.892 1196.25 121H1280.75Z" fill="#F1F1F1"/>
<path fill-rule="evenodd" clip-rule="evenodd" d="M1151.19 121C1151.22 120.096 1151.23 119.194 1151.23 118.272C1151.23 73.28 1125.38 44.48 1084.99 44.48C1043.97 44.48 1016.45 74.24 1016.45 118.656C1016.45 119.442 1016.46 120.223 1016.48 121H1151.19ZM1124.42 105.92H1043.39C1047.3 82.176 1062.53 67.904 1085.12 67.904C1107.14 67.904 1120.96 81.408 1124.42 105.92Z" fill="#F1F1F1"/>
<path d="M996.328 121C997.903 113.747 998.72 106.034 998.72 97.92C998.72 42.88 961.216 6.39999 904.704 6.39999H844.48V121H870.72V31.36H904.704C946.56 31.36 971.84 56.448 971.84 97.92C971.84 106.307 970.806 114.025 968.81 121H996.328Z" fill="#F1F1F1"/>
<path d="M716.22 121V70.08H762.94V48.32H716.22V15.808H690.3V48.32H671.1V70.08H690.3V121H716.22Z" fill="#F1F1F1"/>
<path d="M550.156 121C550.139 120.289 550.13 119.572 550.13 118.848C550.13 87.296 566.578 67.904 593.266 67.904C616.69 67.904 629.106 82.88 632.498 101.504H658.418C654.258 69.44 631.09 44.48 593.202 44.48C551.858 44.48 524.21 74.24 524.21 118.848C524.21 119.569 524.217 120.287 524.232 121H550.156Z" fill="#F1F1F1"/>
<path d="M504.374 121V48.32H478.454V121H504.374Z" fill="#F1F1F1"/>
<path d="M400.63 121V48.32H374.71V121H400.63Z" fill="#F1F1F1"/>
<path d="M1339.08 32V0H1311.88V32H1339.08Z" fill="#F1F1F1"/>
</svg>
