<svg width="25" height="25" viewBox="0 0 25 25" fill="none" xmlns="http://www.w3.org/2000/svg">
<g clip-path="url(#clip0_200_6529)">
<path d="M12.4126 0.759521C6.05018 0.759521 0.892578 5.91712 0.892578 12.2795C0.892578 18.6419 6.05018 23.7995 12.4126 23.7995C18.775 23.7995 23.9326 18.6419 23.9326 12.2795C23.9326 5.91712 18.775 0.759521 12.4126 0.759521ZM9.59258 17.0543H7.25978V9.54712H9.59258V17.0543ZM8.41178 8.62552C7.67498 8.62552 7.19858 8.10352 7.19858 7.45792C7.19858 6.79912 7.68938 6.29272 8.44178 6.29272C9.19418 6.29272 9.65498 6.79912 9.66938 7.45792C9.66938 8.10352 9.19418 8.62552 8.41178 8.62552ZM18.1126 17.0543H15.7798V12.8939C15.7798 11.9255 15.4414 11.2679 14.5978 11.2679C13.9534 11.2679 13.5706 11.7131 13.4014 12.1415C13.339 12.2939 13.3234 12.5099 13.3234 12.7247V17.0531H10.9894V11.9411C10.9894 11.0039 10.9594 10.2203 10.9282 9.54592H12.955L13.0618 10.5887H13.1086C13.4158 10.0991 14.1682 9.37672 15.427 9.37672C16.9618 9.37672 18.1126 10.4051 18.1126 12.6155V17.0543Z" fill="#282828"/>
</g>
<defs>
<clipPath id="clip0_200_6529">
<rect width="24" height="24" fill="white" transform="translate(0.412598 0.279541)"/>
</clipPath>
</defs>
</svg>
