<svg width="56" height="56" viewBox="0 0 56 56" fill="none" xmlns="http://www.w3.org/2000/svg">
<path d="M28.0005 16.48C21.6381 16.48 16.4805 21.6376 16.4805 28C16.4805 34.3624 21.6381 39.52 28.0005 39.52C34.3629 39.52 39.5205 34.3624 39.5205 28C39.5205 21.6376 34.3629 16.48 28.0005 16.48ZM25.1805 32.7748H22.8477V25.2676H25.1805V32.7748ZM23.9997 24.346C23.2629 24.346 22.7865 23.824 22.7865 23.1784C22.7865 22.5196 23.2773 22.0132 24.0297 22.0132C24.7821 22.0132 25.2429 22.5196 25.2573 23.1784C25.2573 23.824 24.7821 24.346 23.9997 24.346ZM33.7005 32.7748H31.3677V28.6144C31.3677 27.646 31.0293 26.9884 30.1857 26.9884C29.5413 26.9884 29.1585 27.4336 28.9893 27.862C28.9269 28.0144 28.9113 28.2304 28.9113 28.4452V32.7736H26.5773V27.6616C26.5773 26.7244 26.5473 25.9408 26.5161 25.2664H28.5429L28.6497 26.3092H28.6965C29.0037 25.8196 29.7561 25.0972 31.0149 25.0972C32.5497 25.0972 33.7005 26.1256 33.7005 28.336V32.7748Z" fill="#7D7D7D"/>
<rect x="0.25" y="0.25" width="55.5" height="55.5" rx="27.75" stroke="#7D7D7D" stroke-width="0.5"/>
</svg>
