<svg width="37" height="33" viewBox="0 0 37 33" fill="none" xmlns="http://www.w3.org/2000/svg">
<path d="M15.4983 7.61884C15.4983 3.55492 18.7927 0.260456 22.8566 0.260456C26.9206 0.260456 30.215 3.55492 30.215 7.61884C30.215 11.6828 26.9206 14.9772 22.8566 14.9772C18.7927 14.9772 15.4983 11.6828 15.4983 7.61884Z" fill="#282828"/>
<path d="M0 6.44672C0 2.88629 2.8863 0 6.44672 0C10.0071 0 12.8934 2.8863 12.8934 6.44672C12.8934 9.36728 9.90377 11.7934 8.72468 14.4654C8.47432 15.0328 8.33529 15.6603 8.33529 16.3203C8.33529 17.0092 8.48675 17.6627 8.75818 18.2493C9.96567 20.859 12.8934 23.237 12.8934 26.1125C12.8934 29.6729 10.0071 32.5592 6.44672 32.5592C2.8863 32.5592 0 29.6729 0 26.1125C0 23.228 2.92409 20.8352 4.10702 18.2044C4.36558 17.6294 4.50942 16.9916 4.50942 16.3203C4.50942 15.6778 4.37768 15.0661 4.13974 14.5107C2.98603 11.8178 0 9.37642 0 6.44672Z" fill="#282828"/>
<path d="M15.4983 24.9403C15.4983 20.8764 18.7927 17.5819 22.8566 17.5819C26.9206 17.5819 30.215 20.8764 30.215 24.9403C30.215 29.0042 26.9206 32.2987 22.8566 32.2987C18.7927 32.2987 15.4983 29.0042 15.4983 24.9403Z" fill="#282828"/>
<path d="M32.8195 30.4485C32.8195 29.4564 33.6238 28.6521 34.616 28.6521C35.6081 28.6521 36.4124 29.4564 36.4124 30.4485C36.4124 31.4407 35.6081 32.245 34.616 32.245C33.6238 32.245 32.8195 31.4407 32.8195 30.4485Z" fill="#282828"/>
</svg>
